{
  "accessors": [
    {
      "bufferView": 2,
      "componentType": 5126,
      "count": 14062,
      "max": [
        315.350830078125,
        169.7686004638672,
        113.69124603271484
      ],
      "min": [
        -19.701515197753906,
        -129.2379150390625,
        -113.69124603271484
      ],
      "type": "VEC3"
    },
    {
      "bufferView": 2,
      "byteOffset": 168744,
      "componentType": 5126,
      "count": 14062,
      "max": [
        1.0,
        1.0,
        1.0
      ],
      "min": [
        -1.0,
        -1.0,
        -1.0
      ],
      "type": "VEC3"
    },
    {
      "bufferView": 1,
      "componentType": 5126,
      "count": 14062,
      "max": [
        0.9999998211860657,
        1.0
      ],
      "min": [
        0.0,
        0.0
      ],
      "type": "VEC2"
    },
    {
      "bufferView": 0,
      "componentType": 5125,
      "count": 33612,
      "type": "SCALAR"
    },
    {
      "bufferView": 2,
      "byteOffset": 337488,
      "componentType": 5126,
      "count": 112,
      "max": [
        73.3731918334961,
        97.8333740234375,
        89.17350006103516
      ],
      "min": [
        -12.800477981567383,
        -39.593936920166016,
        -89.17350006103516
      ],
      "type": "VEC3"
    },
    {
      "bufferView": 2,
      "byteOffset": 338832,
      "componentType": 5126,
      "count": 112,
      "max": [
        1.0,
        1.0,
        1.0
      ],
      "min": [
        -1.0,
        -1.0,
        -1.0
      ],
      "type": "VEC3"
    },
    {
      "bufferView": 1,
      "byteOffset": 112496,
      "componentType": 5126,
      "count": 112,
      "max": [
        1.0,
        1.2354531288146973
      ],
      "min": [
        -0.030713045969605446,
        0.0
      ],
      "type": "VEC2"
    },
    {
      "bufferView": 0,
      "byteOffset": 134448,
      "componentType": 5125,
      "count": 228,
      "type": "SCALAR"
    }
  ],
  "asset": {
    "extras": {
      "author": "Renafox (https://sketchfab.com/kryik1023)",
      "license": "CC-BY-4.0 (http://creativecommons.org/licenses/by/4.0/)",
      "source": "https://sketchfab.com/3d-models/truck-wip-33e925207e134652bd8c2465e5c16957",
      "title": "Truck WIP"
    },
    "generator": "Sketchfab-12.67.0",
    "version": "2.0"
  },
  "bufferViews": [
    {
      "buffer": 0,
      "byteLength": 135360,
      "name": "floatBufferViews",
      "target": 34963
    },
    {
      "buffer": 0,
      "byteLength": 113392,
      "byteOffset": 135360,
      "byteStride": 8,
      "name": "floatBufferViews",
      "target": 34962
    },
    {
      "buffer": 0,
      "byteLength": 340176,
      "byteOffset": 248752,
      "byteStride": 12,
      "name": "floatBufferViews",
      "target": 34962
    }
  ],
  "buffers": [
    {
      "byteLength": 588928,
      "uri": "scene.bin"
    }
  ],
  "images": [
    {
      "uri": "textures/Material_45_baseColor.png"
    },
    {
      "uri": "textures/Material_45_metallicRoughness.png"
    }
  ],
  "materials": [
    {
      "alphaMode": "BLEND",
      "name": "RootNode",
      "pbrMetallicRoughness": {
        "baseColorFactor": [
          1.0,
          1.0,
          1.0,
          0.3
        ],
        "roughnessFactor": 0.0
      }
    },
    {
      "doubleSided": true,
      "name": "Material_45",
      "occlusionTexture": {
        "index": 1
      },
      "pbrMetallicRoughness": {
        "baseColorTexture": {
          "index": 0
        },
        "metallicFactor": 0.0,
        "metallicRoughnessTexture": {
          "index": 1
        }
      }
    }
  ],
  "meshes": [
    {
      "name": "Box002_Material #45_0",
      "primitives": [
        {
          "attributes": {
            "NORMAL": 1,
            "POSITION": 0,
            "TEXCOORD_0": 2
          },
          "indices": 3,
          "material": 1,
          "mode": 4
        }
      ]
    },
    {
      "name": "Object001__0",
      "primitives": [
        {
          "attributes": {
            "NORMAL": 5,
            "POSITION": 4,
            "TEXCOORD_0": 6
          },
          "indices": 7,
          "material": 0,
          "mode": 4
        }
      ]
    }
  ],
  "nodes": [
    {
      "children": [
        1
      ],
      "matrix": [
        1.0,
        0.0,
        0.0,
        0.0,
        0.0,
        2.220446049250313e-16,
        -1.0,
        0.0,
        0.0,
        1.0,
        2.220446049250313e-16,
        0.0,
        0.0,
        0.0,
        0.0,
        1.0
      ],
      "name": "Sketchfab_model"
    },
    {
      "children": [
        2
      ],
      "matrix": [
        1.0,
        0.0,
        0.0,
        0.0,
        0.0,
        0.0,
        1.0,
        0.0,
        0.0,
        -1.0,
        0.0,
        0.0,
        0.0,
        0.0,
        0.0,
        1.0
      ],
      "name": "ea87e4b92f7f48b08958134748b1b9bb.fbx"
    },
    {
      "children": [
        3,
        5
      ],
      "name": "RootNode"
    },
    {
      "children": [
        4
      ],
      "matrix": [
        1.6292067085035731e-07,
        3.308722055781658e-24,
        0.9999998807906971,
        0.0,
        -2.962010032290428e-08,
        0.6776288747787469,
        4.825727188674646e-15,
        0.0,
        -0.8317949175834538,
        -3.6358912413448984e-08,
        1.3551660213745375e-07,
        0.0,
        2.799150252030813e-06,
        52.690696716308594,
        -64.03709411621094,
        1.0
      ],
      "name": "Box002"
    },
    {
      "mesh": 0,
      "name": "Box002_Material #45_0"
    },
    {
      "children": [
        6
      ],
      "matrix": [
        1.62920670739335e-07,
        0.0,
        0.9999998807906971,
        0.0,
        -1.1039976293246213e-07,
        0.6776288747787386,
        1.7986405571091742e-14,
        0.0,
        -0.8317949175834434,
        -1.3551660079365133e-07,
        1.3551660204510595e-07,
        0.0,
        2.799150252030813e-06,
        52.690696716308594,
        -64.03709411621094,
        1.0
      ],
      "name": "Object001"
    },
    {
      "mesh": 1,
      "name": "Object001__0"
    }
  ],
  "samplers": [
    {
      "magFilter": 9729,
      "minFilter": 9987,
      "wrapS": 10497,
      "wrapT": 10497
    }
  ],
  "scene": 0,
  "scenes": [
    {
      "name": "Sketchfab_Scene",
      "nodes": [
        0
      ]
    }
  ],
  "textures": [
    {
      "sampler": 0,
      "source": 0
    },
    {
      "sampler": 0,
      "source": 1
    }
  ]
}
